<svg xmlns="http://www.w3.org/2000/svg" viewBox="0 0 64 64">
  <!-- Speech bubble with rounded corners -->
  <path d="M12 16 h40 a10 10 0 0 1 10 10 v16 a10 10 0 0 1 -10 10 h-24 l-10 10 v-10 h-6 a10 10 0 0 1 -10 -10 v-16 a10 10 0 0 1 10 -10" 
        fill="#2563eb" 
        stroke="none"/>
  
  <!-- Chaplin mustache - simplified -->
  <path d="M20 34 c6 0 6 -6 12 -6 s6 6 12 6" 
        fill="none" 
        stroke="#fff" 
        stroke-width="4" 
        stroke-linecap="round"/>
  
  <!-- Word association dots -->
  <circle cx="32" cy="28" r="3" fill="#fff"/>
  <line x1="24" y1="28" x2="28" y2="28" stroke="#fff" stroke-width="2" stroke-linecap="round" opacity="0.7"/>
  <line x1="36" y1="28" x2="40" y2="28" stroke="#fff" stroke-width="2" stroke-linecap="round" opacity="0.7"/>
</svg>