<svg xmlns="http://www.w3.org/2000/svg" viewBox="0 0 64 64">
  <!-- Clean circle background -->
  <circle cx="32" cy="32" r="31" fill="#fff" stroke="#1a1a1a" stroke-width="2"/>
  
  <!-- Minimal speech bubble -->
  <path d="M14 18 h36 a6 6 0 0 1 6 6 v16 a6 6 0 0 1 -6 6 h-22 l-6 8 v-8 h-8 a6 6 0 0 1 -6 -6 v-16 a6 6 0 0 1 6 -6" 
        fill="none" 
        stroke="#1a1a1a" 
        stroke-width="2.5"/>
  
  <!-- Simplified Chaplin mustache using Japanese calligraphy style -->
  <path d="M24 32 q4 3 8 0 q4 3 8 0" 
        fill="none" 
        stroke="#1a1a1a" 
        stroke-width="3" 
        stroke-linecap="round"/>
  
  <!-- Minimal connection indicator -->
  <circle cx="32" cy="28" r="2" fill="#dc2626"/>
  <path d="M26 28 h4 m4 0 h4" stroke="#1a1a1a" stroke-width="1.5" opacity="0.5"/>
</svg>