<svg xmlns="http://www.w3.org/2000/svg" viewBox="0 0 64 64">
  <!-- Background circle -->
  <circle cx="32" cy="32" r="30" fill="#f8f8f8" stroke="#333" stroke-width="2"/>
  
  <!-- Speech bubble base -->
  <path d="M16 20 h32 a8 8 0 0 1 8 8 v12 a8 8 0 0 1 -8 8 h-20 l-8 8 v-8 h-4 a8 8 0 0 1 -8 -8 v-12 a8 8 0 0 1 8 -8" 
        fill="#4a90e2" 
        opacity="0.9"/>
  
  <!-- Chaplin mustache inside speech bubble -->
  <path d="M22 32 q4 4 8 0 q4 4 8 0" 
        fill="none" 
        stroke="#333" 
        stroke-width="3" 
        stroke-linecap="round"/>
  
  <!-- Connection dots representing word associations -->
  <circle cx="26" cy="30" r="2" fill="#333"/>
  <circle cx="32" cy="30" r="2" fill="#333"/>
  <circle cx="38" cy="30" r="2" fill="#333"/>
  
  <!-- Subtle bowler hat outline at top -->
  <path d="M20 12 q12 -4 24 0 l-2 6 h-20 z" 
        fill="#333" 
        opacity="0.8"/>
</svg>