<svg xmlns="http://www.w3.org/2000/svg" viewBox="0 0 32 32" width="32" height="32">
  <!-- Background circle -->
  <circle cx="16" cy="16" r="15" fill="#F4F5F7" stroke="#DFE1E6" stroke-width="1"/>
  
  <!-- Speech bubble -->
  <path d="M8 8 Q6 8 6 10 L6 18 Q6 20 8 20 L12 20 L10 24 L14 20 L24 20 Q26 20 26 18 L26 10 Q26 8 24 8 Z" 
        fill="#0052CC" opacity="0.9"/>
  
  <!-- Chaplin mustache inside bubble -->
  <path d="M16 13 Q13 13 11 15 Q13 16 16 14 Q19 16 21 15 Q19 13 16 13" 
        fill="white" stroke="white" stroke-width="0.5"/>
  
  <!-- Connection dots for word association -->
  <circle cx="11" cy="11" r="1" fill="#36B37E"/>
  <circle cx="16" cy="11" r="1" fill="#36B37E"/>
  <circle cx="21" cy="11" r="1" fill="#36B37E"/>
  
  <!-- Connecting lines -->
  <line x1="12" y1="11" x2="15" y2="11" stroke="#36B37E" stroke-width="0.5" opacity="0.5"/>
  <line x1="17" y1="11" x2="20" y2="11" stroke="#36B37E" stroke-width="0.5" opacity="0.5"/>
</svg>