<svg xmlns="http://www.w3.org/2000/svg" viewBox="0 0 32 32" width="32" height="32">
  <!-- Clean speech bubble -->
  <path d="M4 6 Q2 6 2 8 L2 20 Q2 22 4 22 L10 22 L8 28 L14 22 L28 22 Q30 22 30 20 L30 8 Q30 6 28 6 Z" 
        fill="#0052CC"/>
  
  <!-- Stylized Chaplin mustache -->
  <path d="M16 12 C12 12 10 14 10 16 C10 16 12 15 16 14 C20 15 22 16 22 16 C22 14 20 12 16 12" 
        fill="white" stroke="none"/>
  
  <!-- Word association chain -->
  <circle cx="16" cy="18" r="1.5" fill="white"/>
  <path d="M12 18 L14.5 18 M17.5 18 L20 18" stroke="white" stroke-width="1" stroke-linecap="round"/>
</svg>