<?xml version="1.0" standalone="no"?>
<!DOCTYPE svg PUBLIC "-//W3C//DTD SVG 20010904//EN"
 "http://www.w3.org/TR/2001/REC-SVG-20010904/DTD/svg10.dtd">
<svg version="1.0" xmlns="http://www.w3.org/2000/svg"
 width="1024.000000pt" height="1024.000000pt" viewBox="0 0 1024.000000 1024.000000"
 preserveAspectRatio="xMidYMid meet">

<g transform="translate(0.000000,1024.000000) scale(0.100000,-0.100000)"
fill="#000000" stroke="none">
<path d="M4860 9713 c-373 -26 -750 -110 -1035 -228 -182 -76 -338 -162 -460
-254 -251 -191 -453 -432 -593 -711 -121 -241 -184 -457 -217 -750 -19 -175
-24 -317 -35 -1045 -5 -352 -11 -688 -12 -748 -1 -65 -6 -111 -13 -117 -7 -6
-99 2 -250 22 -308 41 -500 44 -587 9 -245 -96 -277 -361 -63 -523 195 -148
454 -181 2060 -263 570 -30 775 -33 1715 -30 1060 3 1450 18 2485 96 690 51
828 79 987 195 194 143 181 403 -25 503 -123 60 -226 61 -690 10 -103 -12
-190 -20 -192 -17 -6 6 -24 598 -35 1183 -13 676 -16 753 -45 919 -45 258
-112 438 -254 679 -267 452 -695 771 -1256 936 -230 68 -479 114 -710 131
-126 9 -662 11 -775 3z"/>
<path d="M4470 1901 c-124 -40 -265 -131 -338 -219 -22 -26 -65 -87 -97 -137
-192 -302 -274 -385 -457 -469 -89 -41 -156 -56 -253 -56 -161 0 -300 45 -451
146 -52 34 -94 59 -94 54 0 -29 208 -252 330 -354 197 -165 433 -283 675 -337
88 -20 379 -17 474 5 338 76 627 266 792 520 30 47 57 85 61 85 4 1 33 -36 65
-81 71 -102 196 -234 282 -298 135 -101 320 -182 504 -221 122 -27 358 -31
477 -10 284 50 566 209 818 459 89 89 208 229 201 237 -3 2 -34 -17 -69 -42
-91 -64 -212 -119 -316 -144 -72 -17 -110 -20 -194 -16 -254 11 -419 129 -633
452 -118 179 -176 249 -251 304 -139 101 -250 141 -393 141 -169 0 -298 -42
-427 -140 -29 -22 -56 -40 -60 -40 -4 0 -26 15 -49 34 -64 52 -164 102 -247
125 -98 27 -269 28 -350 2z"/>
</g>
</svg>
